<svg xmlns="http://www.w3.org/2000/svg" xmlns:xlink="http://www.w3.org/1999/xlink" viewBox="0,0,256,256" width="50px" height="50px"><g fill="#ff0000" fill-rule="nonzero" stroke="none" stroke-width="1" stroke-linecap="butt" stroke-linejoin="miter" stroke-miterlimit="10" stroke-dasharray="" stroke-dashoffset="0" font-family="none" font-weight="none" font-size="none" text-anchor="none" style="mix-blend-mode: normal"><g transform="scale(5.12,5.12)"><path d="M21,4c-0.51335,0.0005 -0.94296,0.38959 -0.99414,0.90039c0.00088,-0.00867 -0.13516,0.42014 -0.36133,0.6875c-0.22617,0.26736 -0.45875,0.41211 -0.75,0.41211h-2.73828l-0.00195,-0.00195c-0.07487,-0.08793 -0.18165,-0.27165 -0.23828,-0.40039l-0.00977,0.01563c-0.15354,-0.36622 -0.5092,-0.6069 -0.90625,-0.61328h-10c-0.55226,0.00006 -0.99994,0.44774 -1,1v8c0,3.12838 0.94346,6.87819 1,7.10156l-0.00781,1.53125l-0.67969,0.64063c-0.19958,0.18896 -0.31259,0.45172 -0.3125,0.72656v4c0.00005,0.2652 0.10543,0.51952 0.29297,0.70703l0.70703,0.70703v4.42383l-0.94922,2.8457c-0.06011,0.18037 -0.06756,0.37414 -0.02148,0.55859l0.92969,3.71875l-0.9082,2.72266c-0.1017,0.30506 -0.05052,0.64041 0.13756,0.90124c0.18808,0.26083 0.4901,0.41531 0.81166,0.41517h14c0.2652,-0.00005 0.51952,-0.10543 0.70703,-0.29297l0.10352,-0.10352c0.04718,0.0659 0.04586,0.09376 0.09766,0.16016c0.43054,0.5519 1.0578,1.23633 2.0918,1.23633h3c0.83333,0 1.44727,-0.35547 1.94727,-0.60547c0.5,-0.25 0.88607,-0.39453 1.05273,-0.39453h5c0.2652,-0.00005 0.51952,-0.10543 0.70703,-0.29297l0.22656,-0.22656c0.13553,0.17371 0.29781,0.34966 0.43164,0.51758c0.16663,0.20907 0.33578,0.41645 0.58398,0.61328c0.24821,0.19683 0.62486,0.38867 1.05078,0.38867h5c0.55226,-0.00006 0.99994,-0.44774 1,-1v-0.71875l2.75781,0.68945c0.29978,0.0748 0.61731,0.00683 0.86021,-0.18413c0.2429,-0.19096 0.3839,-0.48347 0.38198,-0.79244c0,0 -0.0637,-9.86866 0,-14.98242c0.00309,-0.26925 -0.10253,-0.52838 -0.29297,-0.71875l-0.70703,-0.70703v-4.58594c-0.00005,-0.2652 -0.10543,-0.51952 -0.29297,-0.70703l-0.49023,-0.49023l0.60547,-1.21094l0.88477,-0.88477c0.18754,-0.18751 0.29292,-0.44183 0.29297,-0.70703c0,-1.00933 -0.01367,-4.00901 -0.01367,-5.00977c0,-0.08097 -0.00984,-0.16164 -0.0293,-0.24023l-0.89844,-3.63281l0.83594,-1.66992c0.0694,-0.13888 0.10551,-0.29201 0.10547,-0.44727v-2c-0.00006,-0.55226 -0.44774,-0.99994 -1,-1h-4c-0.32204,0 -0.6625,0.08981 -1,0.17773v-0.17773c-0.00006,-0.55226 -0.44774,-0.99994 -1,-1h-6c-0.78387,0 -1.56733,0.24873 -2.05859,0.79688c-0.30851,0.34423 -0.41232,0.78826 -0.56445,1.20313h-0.90234c-0.06081,-0.07508 -0.06916,-0.06956 -0.14258,-0.17969c-0.19311,-0.28966 -0.33203,-0.65365 -0.33203,-0.82031c-0.00006,-0.55226 -0.44774,-0.99994 -1,-1zM21.57813,6h5.76758c0.12657,0.30582 0.17439,0.70787 0.32227,0.92969c0.30689,0.46034 0.625,0.77734 0.625,0.77734c0.18751,0.18754 0.44183,0.29292 0.70703,0.29297h2c0.44137,-0.00042 0.83028,-0.29011 0.95703,-0.71289c0.20574,-0.68596 0.38742,-1.05919 0.47266,-1.1543c0.08524,-0.09511 0.08818,-0.13281 0.57031,-0.13281h5v1c0.00013,0.40641 0.24617,0.77232 0.6225,0.92577c0.37632,0.15344 0.80808,0.0639 1.09235,-0.22655c0.43288,-0.44146 0.6546,-0.60444 0.73828,-0.64453c0.08368,-0.04009 0.14997,-0.05469 0.54688,-0.05469h3v0.76367l-0.89453,1.78906c-0.10636,0.21281 -0.13336,0.45657 -0.07617,0.6875l0.95703,3.87305c0.0006,0.99512 0.0098,3.3186 0.01172,4.47461l-0.70508,0.70508c-0.07605,0.07595 -0.13936,0.16366 -0.1875,0.25977l-1,2c-0.19241,0.38503 -0.11688,0.84997 0.1875,1.1543l0.70703,0.70703v4.58594c0.00005,0.2652 0.10543,0.51952 0.29297,0.70703l0.70703,0.70703c-0.05065,4.79891 -0.0085,11.90252 0,13.30469l-2.75781,-0.68945c-0.29878,-0.07454 -0.61525,-0.00728 -0.85789,0.18233c-0.24264,0.18961 -0.3844,0.48043 -0.3843,0.78837v1h-3.84766c-0.04231,-0.03973 -0.11271,-0.10764 -0.22461,-0.24805c-0.26449,-0.33185 -0.64893,-0.88721 -1.2207,-1.45898c-0.39053,-0.39037 -1.02353,-0.39037 -1.41406,0l-0.70703,0.70703h-4.58594c-0.83333,0 -1.44727,0.35547 -1.94727,0.60547c-0.5,0.25 -0.88607,0.39453 -1.05273,0.39453h-3c0.034,0 -0.24367,-0.1182 -0.51562,-0.4668c-0.27195,-0.3486 -0.50032,-0.79368 -0.58203,-0.96484c-0.1401,-0.29275 -0.41354,-0.49932 -0.73344,-0.55406c-0.3199,-0.05474 -0.64647,0.04916 -0.87593,0.27867l-0.70703,0.70703h-12.19727l0.56055,-1.68359c0.06011,-0.18037 0.06756,-0.37414 0.02148,-0.55859l-0.92969,-3.71875l0.9082,-2.72266c0.03382,-0.10205 0.05097,-0.20889 0.05078,-0.31641v-5c-0.00005,-0.2652 -0.10543,-0.51952 -0.29297,-0.70703l-0.70703,-0.70703v-3.1543l0.67578,-0.64062c0.1981,-0.18756 0.31099,-0.4479 0.3125,-0.7207l0.01172,-2.06445c0.00064,-0.08358 -0.0092,-0.16691 -0.0293,-0.24805c0,0 -0.9707,-3.98003 -0.9707,-6.75781v-7h8.44922c0.06781,0.10232 0.09309,0.19092 0.18164,0.29492c0.26763,0.31432 0.69691,0.70508 1.36914,0.70508h2.89453c1.00075,0 1.78976,-0.54275 2.27734,-1.11914c0.24108,-0.28499 0.26976,-0.59056 0.40625,-0.88086zM34.07031,11c-0.09964,0.00223 -0.19839,0.01935 -0.29297,0.05078l-6.08984,2c-0.35495,0.1171 -0.61497,0.42235 -0.67415,0.7914c-0.05918,0.36905 0.09237,0.7403 0.3929,0.96251l8.11914,6c0.27965,0.20638 0.6464,0.25277 0.96864,0.12252c0.32223,-0.13025 0.55374,-0.41846 0.61144,-0.7612l1.01367,-6c0.06578,-0.39119 -0.10586,-0.78429 -0.4375,-1.00195l-3.04297,-2c-0.16857,-0.11075 -0.3667,-0.16794 -0.56836,-0.16406zM14.68555,11.00195c-0.06519,0.00279 -0.12995,0.01194 -0.19336,0.02734l-3.73242,0.92578c-0.33634,0.08316 -0.60568,0.33448 -0.71189,0.66427c-0.10622,0.32979 -0.03418,0.69105 0.19041,0.95488l20.5332,24.07422c0.19011,0.22317 0.46856,0.35168 0.76172,0.35156h4.66602c0.39898,-0.00006 0.75976,-0.23725 0.91797,-0.60352l2.80078,-6.48047c0.18218,-0.42134 0.05413,-0.9126 -0.31055,-1.19141l-24.26758,-18.51953c-0.18738,-0.14263 -0.41909,-0.21456 -0.6543,-0.20312zM14.50781,13.08594l23.26367,17.75391l-2.22852,5.16016h-3.54883l-19.18359,-22.49219zM33.94336,13.09961l2.0957,1.37695l-0.63477,3.75195l-5.25391,-3.88281zM12.98438,27c-0.44026,0.0071 -0.82408,0.30131 -0.94531,0.72461l-2,7c-0.11455,0.39895 0.02924,0.82718 0.36133,1.07617l4,3c0.26252,0.19672 0.60481,0.25218 0.91601,0.14844l6,-2c0.3289,-0.10963 0.57755,-0.38178 0.65714,-0.7192c0.07958,-0.33743 -0.02126,-0.692 -0.26651,-0.93705l-8,-8c-0.19132,-0.19141 -0.45205,-0.29711 -0.72266,-0.29297zM13.49414,29.9082l5.6543,5.6543l-3.9668,1.32227l-3.03125,-2.27148z"></path></g></g></svg>